<svg width="147" height="34" viewBox="0 0 147 34" fill="none" xmlns="http://www.w3.org/2000/svg">
<path d="M42.7647 26V13.52H45.6247V26H42.7647ZM51.0587 26V18.564C51.0587 17.732 50.7987 17.0907 50.2787 16.64C49.7587 16.172 49.1174 15.938 48.3547 15.938C47.8347 15.938 47.3667 16.042 46.9507 16.25C46.552 16.458 46.2314 16.7613 45.9887 17.16C45.746 17.5413 45.6247 18.0093 45.6247 18.564L44.5067 17.94C44.5067 16.9867 44.7147 16.1633 45.1307 15.47C45.5467 14.7767 46.11 14.2393 46.8207 13.858C47.5314 13.4593 48.3287 13.26 49.2127 13.26C50.0967 13.26 50.894 13.4507 51.6047 13.832C52.3154 14.2133 52.8787 14.7507 53.2947 15.444C53.7107 16.1373 53.9187 16.9693 53.9187 17.94V26H51.0587ZM59.3527 26V18.564C59.3527 17.732 59.0927 17.0907 58.5727 16.64C58.0527 16.172 57.4114 15.938 56.6487 15.938C56.146 15.938 55.6867 16.042 55.2707 16.25C54.8547 16.458 54.5254 16.7613 54.2827 17.16C54.04 17.5413 53.9187 18.0093 53.9187 18.564L52.3067 17.94C52.3934 16.9867 52.6707 16.1633 53.1387 15.47C53.6067 14.7767 54.2047 14.2393 54.9327 13.858C55.678 13.4593 56.4927 13.26 57.3767 13.26C58.278 13.26 59.0927 13.4507 59.8207 13.832C60.5487 14.2133 61.1294 14.7507 61.5627 15.444C61.996 16.1373 62.2127 16.9693 62.2127 17.94V26H59.3527ZM70.3852 26.26C69.2586 26.26 68.2359 25.974 67.3172 25.402C66.4159 24.83 65.6966 24.0587 65.1592 23.088C64.6392 22.1 64.3792 20.9993 64.3792 19.786C64.3792 18.5553 64.6392 17.4547 65.1592 16.484C65.6966 15.496 66.4159 14.716 67.3172 14.144C68.2359 13.5547 69.2586 13.26 70.3852 13.26C71.3386 13.26 72.1792 13.468 72.9072 13.884C73.6526 14.2827 74.2419 14.8373 74.6752 15.548C75.1086 16.2587 75.3252 17.0647 75.3252 17.966V21.554C75.3252 22.4553 75.1086 23.2613 74.6752 23.972C74.2592 24.6827 73.6786 25.246 72.9332 25.662C72.1879 26.0607 71.3386 26.26 70.3852 26.26ZM70.8532 23.556C71.9106 23.556 72.7599 23.2007 73.4012 22.49C74.0599 21.7793 74.3892 20.8693 74.3892 19.76C74.3892 19.0147 74.2419 18.356 73.9472 17.784C73.6526 17.212 73.2366 16.77 72.6992 16.458C72.1792 16.1287 71.5639 15.964 70.8532 15.964C70.1599 15.964 69.5446 16.1287 69.0072 16.458C68.4872 16.77 68.0712 17.212 67.7592 17.784C67.4646 18.356 67.3172 19.0147 67.3172 19.76C67.3172 20.5053 67.4646 21.164 67.7592 21.736C68.0712 22.308 68.4872 22.7587 69.0072 23.088C69.5446 23.4 70.1599 23.556 70.8532 23.556ZM74.2072 26V22.646L74.7012 19.604L74.2072 16.588V13.52H77.0672V26H74.2072ZM82.1393 26V8.32H84.9993V26H82.1393ZM79.1493 16.12V13.52H87.9893V16.12H79.1493ZM95.51 26.26C94.262 26.26 93.1353 25.9827 92.13 25.428C91.142 24.856 90.3533 24.076 89.764 23.088C89.192 22.1 88.906 20.9907 88.906 19.76C88.906 18.5293 89.192 17.4287 89.764 16.458C90.336 15.47 91.1073 14.69 92.078 14.118C93.066 13.546 94.158 13.26 95.354 13.26C96.5153 13.26 97.538 13.5287 98.422 14.066C99.3233 14.6033 100.025 15.34 100.528 16.276C101.048 17.212 101.308 18.278 101.308 19.474C101.308 19.682 101.291 19.8987 101.256 20.124C101.239 20.332 101.204 20.566 101.152 20.826H90.908V18.486H99.67L98.604 19.422C98.5693 18.6593 98.422 18.018 98.162 17.498C97.902 16.978 97.5293 16.5793 97.044 16.302C96.576 16.0247 95.9953 15.886 95.302 15.886C94.574 15.886 93.9413 16.042 93.404 16.354C92.8666 16.666 92.4506 17.108 92.156 17.68C91.8613 18.2347 91.714 18.902 91.714 19.682C91.714 20.462 91.87 21.1467 92.182 21.736C92.494 22.3253 92.936 22.7847 93.508 23.114C94.08 23.426 94.7386 23.582 95.484 23.582C96.1253 23.582 96.7146 23.4693 97.252 23.244C97.8066 23.0187 98.2746 22.6893 98.656 22.256L100.476 24.102C99.8693 24.8127 99.1326 25.35 98.266 25.714C97.3993 26.078 96.4806 26.26 95.51 26.26ZM103.601 26V13.52H106.461V26H103.601ZM106.461 19.058L105.473 18.564C105.473 16.9867 105.819 15.7127 106.513 14.742C107.223 13.754 108.289 13.26 109.711 13.26C110.335 13.26 110.898 13.3727 111.401 13.598C111.903 13.8233 112.371 14.1873 112.805 14.69L110.933 16.614C110.707 16.3713 110.456 16.198 110.179 16.094C109.901 15.99 109.581 15.938 109.217 15.938C108.419 15.938 107.761 16.1893 107.241 16.692C106.721 17.1947 106.461 17.9833 106.461 19.058ZM114.215 26V13.52H117.075V26H114.215ZM115.645 11.232C115.159 11.232 114.752 11.0673 114.423 10.738C114.111 10.4087 113.955 10.0013 113.955 9.516C113.955 9.03067 114.111 8.62333 114.423 8.294C114.752 7.96467 115.159 7.8 115.645 7.8C116.147 7.8 116.555 7.96467 116.867 8.294C117.179 8.62333 117.335 9.03067 117.335 9.516C117.335 10.0013 117.179 10.4087 116.867 10.738C116.555 11.0673 116.147 11.232 115.645 11.232ZM125.508 26.26C124.382 26.26 123.359 25.974 122.44 25.402C121.539 24.83 120.82 24.0587 120.282 23.088C119.762 22.1 119.502 20.9993 119.502 19.786C119.502 18.5553 119.762 17.4547 120.282 16.484C120.82 15.496 121.539 14.716 122.44 14.144C123.359 13.5547 124.382 13.26 125.508 13.26C126.462 13.26 127.302 13.468 128.03 13.884C128.776 14.2827 129.365 14.8373 129.798 15.548C130.232 16.2587 130.448 17.0647 130.448 17.966V21.554C130.448 22.4553 130.232 23.2613 129.798 23.972C129.382 24.6827 128.802 25.246 128.056 25.662C127.311 26.0607 126.462 26.26 125.508 26.26ZM125.976 23.556C127.034 23.556 127.883 23.2007 128.524 22.49C129.183 21.7793 129.512 20.8693 129.512 19.76C129.512 19.0147 129.365 18.356 129.07 17.784C128.776 17.212 128.36 16.77 127.822 16.458C127.302 16.1287 126.687 15.964 125.976 15.964C125.283 15.964 124.668 16.1287 124.13 16.458C123.61 16.77 123.194 17.212 122.882 17.784C122.588 18.356 122.44 19.0147 122.44 19.76C122.44 20.5053 122.588 21.164 122.882 21.736C123.194 22.308 123.61 22.7587 124.13 23.088C124.668 23.4 125.283 23.556 125.976 23.556ZM129.33 26V22.646L129.824 19.604L129.33 16.588V13.52H132.19V26H129.33ZM135.364 26V7.28H138.224V26H135.364Z" fill="#101828"/>
<mask id="mask0_8084_1220" style="mask-type:luminance" maskUnits="userSpaceOnUse" x="0" y="0" width="34" height="34">
<path d="M25.5 0H8.5C3.80558 0 0 3.80558 0 8.5V25.5C0 30.1944 3.80558 34 8.5 34H25.5C30.1944 34 34 30.1944 34 25.5V8.5C34 3.80558 30.1944 0 25.5 0Z" fill="white"/>
</mask>
<g mask="url(#mask0_8084_1220)">
<path d="M25.5 0H8.5C3.80558 0 0 3.80558 0 8.5V25.5C0 30.1944 3.80558 34 8.5 34H25.5C30.1944 34 34 30.1944 34 25.5V8.5C34 3.80558 30.1944 0 25.5 0Z" fill="#4F39F6"/>
<path d="M0 0H34V34H0V0Z" fill="url(#paint0_linear_8084_1220)"/>
<path d="M25.5026 0.708008H8.5026C4.19939 0.708008 0.710938 4.19646 0.710938 8.49967V25.4997C0.710938 29.8029 4.19939 33.2913 8.5026 33.2913H25.5026C29.8058 33.2913 33.2943 29.8029 33.2943 25.4997V8.49967C33.2943 4.19646 29.8058 0.708008 25.5026 0.708008Z" stroke="white" stroke-opacity="0.1"/>
<path d="M10.0781 25.14C9.36876 25.14 8.86476 24.7667 8.56609 24.02C8.28609 23.2733 8.14609 22.0787 8.14609 20.436C8.14609 18.0093 8.49143 15.704 9.18209 13.52C9.35009 12.9787 9.62076 12.5867 9.99409 12.344C10.3861 12.0827 10.9274 11.952 11.6181 11.952C11.9914 11.952 12.2528 11.9987 12.4021 12.092C12.5514 12.1853 12.6261 12.3627 12.6261 12.624C12.6261 12.9227 12.4861 13.5947 12.2061 14.64C12.0194 15.3867 11.8701 16.04 11.7581 16.6C11.6461 17.1413 11.5528 17.8227 11.4781 18.644C11.9821 17.188 12.5794 15.956 13.2701 14.948C13.9794 13.94 14.6981 13.1933 15.4261 12.708C16.1728 12.204 16.8728 11.952 17.5261 11.952C18.1794 11.952 18.6368 12.1013 18.8981 12.4C19.1781 12.6987 19.3181 13.156 19.3181 13.772C19.3181 14.3693 19.1408 15.452 18.7861 17.02C18.6368 17.692 18.5341 18.196 18.4781 18.532C19.0941 16.964 19.7754 15.6853 20.5221 14.696C21.2874 13.7067 22.0341 13.0067 22.7621 12.596C23.4901 12.1667 24.1621 11.952 24.7781 11.952C25.3754 11.952 25.8234 12.1107 26.1221 12.428C26.4394 12.7267 26.5981 13.1747 26.5981 13.772C26.5981 14.2573 26.4954 15.172 26.2901 16.516C26.1034 17.6547 25.9541 18.7373 25.8421 19.764C25.7301 20.772 25.6741 21.9013 25.6741 23.152C25.6741 23.8613 25.5248 24.3747 25.2261 24.692C24.9461 24.9907 24.4794 25.14 23.8261 25.14C23.2101 25.14 22.7621 24.9813 22.4821 24.664C22.2021 24.3467 22.0621 23.8707 22.0621 23.236C22.0621 22.4893 22.1928 21.2573 22.4541 19.54C22.6781 18.0467 22.7901 17.0947 22.7901 16.684C22.7901 16.3853 22.6874 16.236 22.4821 16.236C22.2394 16.236 21.8941 16.5533 21.4461 17.188C20.9981 17.804 20.5501 18.6253 20.1021 19.652C19.6541 20.6787 19.2901 21.7613 19.0101 22.9C18.8048 23.796 18.5621 24.3933 18.2821 24.692C18.0208 24.9907 17.5914 25.14 16.9941 25.14C16.3781 25.14 15.9114 24.8507 15.5941 24.272C15.2954 23.6747 15.1461 22.956 15.1461 22.116C15.1461 21.4067 15.2394 20.38 15.4261 19.036C15.5754 17.8413 15.6501 17.0573 15.6501 16.684C15.6501 16.3853 15.5474 16.236 15.3421 16.236C15.0621 16.236 14.7074 16.572 14.2781 17.244C13.8488 17.916 13.4288 18.7747 13.0181 19.82C12.6261 20.8653 12.3088 21.892 12.0661 22.9C11.8608 23.7773 11.6181 24.3747 11.3381 24.692C11.0768 24.9907 10.6568 25.14 10.0781 25.14Z" fill="#E0E7FF"/>
</g>
<defs>
<linearGradient id="paint0_linear_8084_1220" x1="17" y1="6.96629e-07" x2="18.4167" y2="34" gradientUnits="userSpaceOnUse">
<stop stop-color="white" stop-opacity="0"/>
<stop offset="1" stop-color="white" stop-opacity="0.12"/>
</linearGradient>
</defs>
</svg>
