<svg xmlns="http://www.w3.org/2000/svg" version="1.1" xmlns:xlink="http://www.w3.org/1999/xlink" width="34" height="34"><svg width="34" height="34" viewBox="0 0 34 34" fill="none" xmlns="http://www.w3.org/2000/svg">
<mask id="SvgjsMask1003" style="mask-type:luminance" maskUnits="userSpaceOnUse" x="0" y="0" width="34" height="34">
<path d="M25.5 0H8.5C3.80558 0 0 3.80558 0 8.5V25.5C0 30.1944 3.80558 34 8.5 34H25.5C30.1944 34 34 30.1944 34 25.5V8.5C34 3.80558 30.1944 0 25.5 0Z" fill="white"></path>
</mask>
<g mask="url(#mask0_8084_1219)">
<path d="M25.5 0H8.5C3.80558 0 0 3.80558 0 8.5V25.5C0 30.1944 3.80558 34 8.5 34H25.5C30.1944 34 34 30.1944 34 25.5V8.5C34 3.80558 30.1944 0 25.5 0Z" fill="#4F39F6"></path>
<path d="M0 0H34V34H0V0Z" fill="url(#paint0_linear_8084_1219)"></path>
<path d="M25.5026 0.708008H8.5026C4.19939 0.708008 0.710938 4.19646 0.710938 8.49967V25.4997C0.710938 29.8029 4.19939 33.2913 8.5026 33.2913H25.5026C29.8058 33.2913 33.2943 29.8029 33.2943 25.4997V8.49967C33.2943 4.19646 29.8058 0.708008 25.5026 0.708008Z" stroke="white" stroke-opacity="0.1"></path>
<path d="M10.0781 25.14C9.36876 25.14 8.86476 24.7667 8.56609 24.02C8.28609 23.2733 8.14609 22.0787 8.14609 20.436C8.14609 18.0093 8.49143 15.704 9.18209 13.52C9.35009 12.9787 9.62076 12.5867 9.99409 12.344C10.3861 12.0827 10.9274 11.952 11.6181 11.952C11.9914 11.952 12.2528 11.9987 12.4021 12.092C12.5514 12.1853 12.6261 12.3627 12.6261 12.624C12.6261 12.9227 12.4861 13.5947 12.2061 14.64C12.0194 15.3867 11.8701 16.04 11.7581 16.6C11.6461 17.1413 11.5528 17.8227 11.4781 18.644C11.9821 17.188 12.5794 15.956 13.2701 14.948C13.9794 13.94 14.6981 13.1933 15.4261 12.708C16.1728 12.204 16.8728 11.952 17.5261 11.952C18.1794 11.952 18.6368 12.1013 18.8981 12.4C19.1781 12.6987 19.3181 13.156 19.3181 13.772C19.3181 14.3693 19.1408 15.452 18.7861 17.02C18.6368 17.692 18.5341 18.196 18.4781 18.532C19.0941 16.964 19.7754 15.6853 20.5221 14.696C21.2874 13.7067 22.0341 13.0067 22.7621 12.596C23.4901 12.1667 24.1621 11.952 24.7781 11.952C25.3754 11.952 25.8234 12.1107 26.1221 12.428C26.4394 12.7267 26.5981 13.1747 26.5981 13.772C26.5981 14.2573 26.4954 15.172 26.2901 16.516C26.1034 17.6547 25.9541 18.7373 25.8421 19.764C25.7301 20.772 25.6741 21.9013 25.6741 23.152C25.6741 23.8613 25.5248 24.3747 25.2261 24.692C24.9461 24.9907 24.4794 25.14 23.8261 25.14C23.2101 25.14 22.7621 24.9813 22.4821 24.664C22.2021 24.3467 22.0621 23.8707 22.0621 23.236C22.0621 22.4893 22.1928 21.2573 22.4541 19.54C22.6781 18.0467 22.7901 17.0947 22.7901 16.684C22.7901 16.3853 22.6874 16.236 22.4821 16.236C22.2394 16.236 21.8941 16.5533 21.4461 17.188C20.9981 17.804 20.5501 18.6253 20.1021 19.652C19.6541 20.6787 19.2901 21.7613 19.0101 22.9C18.8048 23.796 18.5621 24.3933 18.2821 24.692C18.0208 24.9907 17.5914 25.14 16.9941 25.14C16.3781 25.14 15.9114 24.8507 15.5941 24.272C15.2954 23.6747 15.1461 22.956 15.1461 22.116C15.1461 21.4067 15.2394 20.38 15.4261 19.036C15.5754 17.8413 15.6501 17.0573 15.6501 16.684C15.6501 16.3853 15.5474 16.236 15.3421 16.236C15.0621 16.236 14.7074 16.572 14.2781 17.244C13.8488 17.916 13.4288 18.7747 13.0181 19.82C12.6261 20.8653 12.3088 21.892 12.0661 22.9C11.8608 23.7773 11.6181 24.3747 11.3381 24.692C11.0768 24.9907 10.6568 25.14 10.0781 25.14Z" fill="#E0E7FF"></path>
</g>
<defs>
<linearGradient id="SvgjsLinearGradient1002" x1="17" y1="6.96629e-07" x2="18.4167" y2="34" gradientUnits="userSpaceOnUse">
<stop stop-color="white" stop-opacity="0"></stop>
<stop offset="1" stop-color="white" stop-opacity="0.12"></stop>
</linearGradient>
</defs>
</svg><style>@media (prefers-color-scheme: light) { :root { filter: none; } }
@media (prefers-color-scheme: dark) { :root { filter: none; } }
</style></svg>